<?xml version="1.0" encoding="utf-8"?>
<!-- Generator: Adobe Illustrator 22.1.0, SVG Export Plug-In . SVG Version: 6.00 Build 0)  -->
<svg version="1.1" xmlns="http://www.w3.org/2000/svg" xmlns:xlink="http://www.w3.org/1999/xlink" x="0px" y="0px"
	 viewBox="0 0 359.3 121" style="enable-background:new 0 0 359.3 121;" xml:space="preserve">
<style type="text/css">
	.st0{fill:#53575A;}
	.st1{fill:#ED1C24;}
</style>
<g id="Layer_1">
	<g>
		<g>
			<path class="st0" d="M343.9,120.7h2v-14.6l11.5,14.6h1.6v-17.8h-2v14.3l-11.2-14.3h-1.9V120.7z M325.2,119.1c-4.1,0-7-3.3-7-7.4
				v-0.1c0-4.1,2.9-7.3,7-7.3c4.1,0,7,3.3,7,7.4v0.1C332.2,115.9,329.3,119.1,325.2,119.1 M325.1,121c5.4,0,9.1-4.3,9.1-9.2
				c0,0,0,0,0-0.1c0-4.9-3.6-9.2-9.1-9.2c-5.4,0-9.1,4.3-9.1,9.2v0.1C316.1,116.7,319.7,121,325.1,121 M304.3,120.7h2v-17.8h-2
				V120.7z M287,120.7h2v-16h6v-1.9h-14v1.9h6V120.7z M264.8,119.1c-4.1,0-7-3.3-7-7.4v-0.1c0-4.1,2.9-7.3,7-7.3c4.1,0,7,3.3,7,7.4
				v0.1C271.8,115.9,268.9,119.1,264.8,119.1 M264.7,121c5.4,0,9.1-4.3,9.1-9.2c0,0,0,0,0-0.1c0-4.9-3.6-9.2-9.1-9.2
				c-5.4,0-9.1,4.3-9.1,9.2v0.1C255.7,116.7,259.3,121,264.7,121 M230,120.7h2v-14.4l6.5,9.5h0.1l6.5-9.6v14.4h2v-17.8h-2l-6.5,9.7
				l-6.5-9.7h-2V120.7z M200,121c3,0,5.5-1.2,7.2-2.7v-7.1h-7.4v1.8h5.4v4.4c-1.2,1-3.1,1.8-5.1,1.8c-4.3,0-7.1-3.2-7.1-7.4v-0.1
				c0-4,2.8-7.3,6.8-7.3c2.5,0,4.1,0.8,5.4,2l1.3-1.5c-1.8-1.5-3.6-2.4-6.6-2.4c-5.3,0-8.9,4.3-8.9,9.2v0.1
				C190.9,116.9,194.4,121,200,121 M166.2,120.7h2v-14.6l11.5,14.6h1.6v-17.8h-2v14.3l-11.2-14.3h-1.9V120.7z M153.7,120.7h2v-17.8
				h-2V120.7z M137.5,121c3.2,0,5.3-1.2,7.1-3.1l-1.3-1.3c-1.7,1.6-3.3,2.6-5.8,2.6c-3.9,0-6.9-3.2-6.9-7.4v-0.1
				c0-4.1,3-7.3,6.9-7.3c2.4,0,4.1,1,5.6,2.4l1.4-1.5c-1.8-1.7-3.7-2.8-7-2.8c-5.2,0-9,4.2-9,9.2v0.1
				C128.5,116.9,132.3,121,137.5,121 M103.8,120.7h2v-14.6l11.5,14.6h1.6v-17.8h-2v14.3l-11.2-14.3h-1.9V120.7z M81.8,114.2l4.1-9.1
				l4.1,9.1H81.8z M76.8,120.7h2.1L81,116h9.7l2.1,4.7H95l-8.1-18H85L76.8,120.7z M62.6,120.8h1.8l7.7-18h-2.2l-6.4,15.4l-6.3-15.4
				h-2.2L62.6,120.8z M34.4,118.8v-14.1h4.2c4.5,0,7.4,3.1,7.4,7.1v0.1c0,3.9-2.9,7-7.4,7H34.4z M32.3,120.7h6.2
				c5.6,0,9.5-3.9,9.5-8.9v-0.1c0-5-3.9-8.9-9.5-8.9h-6.2V120.7z M10.3,114.2l4.1-9.1l4.1,9.1H10.3z M5.3,120.7h2.1l2.1-4.7h9.7
				l2.1,4.7h2.2l-8.1-18h-1.9L5.3,120.7z"/>
			<path class="st1" d="M116,55.1l-8.4,0.2c-8,0.2-11.6,3-11.6,7.9c0,4.8,3.3,8.1,9.5,8.1c5.2,0,8.5-2,10.5-3.7V55.1z M119.3,81.8
				l-2.1-5.2c-3.8,3.4-9.1,6.4-16.8,6.4c-10.7,0-19.1-7.3-19.1-18.7c0-12,9.5-18.6,24.3-19.1l10.3-0.4v-1.5c0-7-4.9-9.8-11.1-9.8
				c-6.4,0-16.1,3.6-19.8,5.8l0-10.8c7.7-5.2,15-6.4,22.7-6.4c14.4,0,23.1,5.9,23.1,21.2v23c0,8.4,0.2,12.7,1.1,15.4H119.3z"/>
			<path class="st1" d="M252.6,33.3c-7.1,0-11.4,6.4-11.4,12.8h22.6C263.5,39.8,260.1,33.3,252.6,33.3 M241.5,56.6
				c0.2,8.6,7.4,14.6,16.4,14.6c5.5,0,13.6-2.8,18.7-5.5l0,10.9c-6.5,4.6-14.3,6.4-21.1,6.4c-20.3,0-28.9-14.8-28.9-30.4
				c0-16.6,9.8-30.4,26.4-30.4c15.7,0,25.9,11.9,25.9,30v4.3H241.5z"/>
			<path class="st1" d="M180.8,23.3c-1.6-0.5-3.2-0.9-4.8-0.9c-5.5,0-10.1,2-16.1,7.3l-1.2-6.1h-12.8v58.2h14.8l-0.1-40.5
				c3.9-3.6,7.8-5.8,11.2-6.5c3-0.6,6.2-1,9.1-0.1V23.3z"/>
			<path class="st1" d="M224.2,23.3c-1.6-0.5-3.2-0.9-4.8-0.9c-5.5,0-10.1,2-16.1,7.3l-1.2-6.1h-12.8v58.2H204l-0.1-40.5
				c3.9-3.6,7.8-5.8,11.2-6.5c3-0.6,6.2-1,9.1-0.1V23.3z"/>
			<path class="st1" d="M360.2,35.1V24h-11.3V7.5l-14.8-0.2V24h-23.6V7.5l-14.8-0.2V24h-11.2v11.1h11.2v31
				c0,11.4,11.1,17.4,25.2,17.4V70.7c-6.1,0-10.4-2.9-10.4-7.4V35.1h23.6v31c0,11.4,10.9,17.4,25,17.4V70.7
				c-6.1,0-10.3-2.9-10.3-7.4V35.1H360.2z"/>
			<path class="st1" d="M69.7,49.5L69.7,49.5l0-11.2H40.9l14.6,13.1V69c-3.7,1.3-7.4,1.7-10.5,1.7c-17.7,0-28.8-12.8-28.8-29.8
				c0-15.6,9.5-28.7,30.8-28.7c8.5,0,16.5,2.5,22.7,5.7V4.3C63.8,2.2,55.8,0,45.5,0C18.5,0,0,18.1,0,42.2C0,65.2,16,83,41.3,83
				c11.4,0,21.1-2.7,28.3-6.1v-0.1h0V49.5z"/>
		</g>
	</g>
</g>
<g id="Isolation_Mode">
</g>
</svg>
