<?xml version="1.0" encoding="UTF-8"?>
<svg xmlns="http://www.w3.org/2000/svg" width="21.34" height="21.335" viewBox="0 0 21.34 21.335">
  <path d="M10.667,7.435a5.47,5.47,0,1,0,5.47,5.47A5.461,5.461,0,0,0,10.667,7.435Zm0,9.026a3.556,3.556,0,1,1,3.556-3.556,3.563,3.563,0,0,1-3.556,3.556Zm6.97-9.25a1.276,1.276,0,1,1-1.276-1.276A1.273,1.273,0,0,1,17.637,7.211ZM21.26,8.506a6.314,6.314,0,0,0-1.723-4.47,6.356,6.356,0,0,0-4.47-1.723c-1.761-.1-7.041-.1-8.8,0a6.346,6.346,0,0,0-4.47,1.719A6.335,6.335,0,0,0,.07,8.5c-.1,1.761-.1,7.041,0,8.8a6.314,6.314,0,0,0,1.723,4.47A6.364,6.364,0,0,0,6.263,23.5c1.761.1,7.041.1,8.8,0a6.314,6.314,0,0,0,4.47-1.723A6.356,6.356,0,0,0,21.26,17.3c.1-1.761.1-7.036,0-8.8ZM18.984,19.194a3.6,3.6,0,0,1-2.028,2.028c-1.4.557-4.737.428-6.289.428s-4.889.124-6.289-.428A3.6,3.6,0,0,1,2.35,19.194c-.557-1.4-.428-4.737-.428-6.289S1.8,8.016,2.35,6.616A3.6,3.6,0,0,1,4.378,4.588c1.4-.557,4.737-.428,6.289-.428s4.889-.124,6.289.428a3.6,3.6,0,0,1,2.028,2.028c.557,1.4.428,4.737.428,6.289S19.541,17.795,18.984,19.194Z" transform="translate(0.005 -2.238)"></path>
</svg>
