<?xml version="1.0" encoding="UTF-8"?>
<svg xmlns="http://www.w3.org/2000/svg" xmlns:xlink="http://www.w3.org/1999/xlink" width="138" height="138" viewBox="0 0 138 138">
  <defs>
    <clipPath id="a">
      <rect width="128" height="96" fill="none"></rect>
    </clipPath>
  </defs>
  <g transform="translate(14167 -2760)">
    <rect width="138" height="138" transform="translate(-14167 2760)" fill="#fff" opacity="0"></rect>
    <g transform="translate(-14162 2781)">
      <g clip-path="url(#a)">
        <path d="M96,62h9.389A20.611,20.611,0,0,1,126,82.611V90" fill="none" stroke="#000005" stroke-linecap="round" stroke-miterlimit="10" stroke-width="4"></path>
        <path d="M6.517,88.977A8.582,8.582,0,0,1,2,81.416V65.222A5.222,5.222,0,0,1,7.223,60H21.248a20.127,20.127,0,0,0,9-2.126l12.233-6.116A43.629,43.629,0,0,1,58.375,47.3l5.259-.438A29.82,29.82,0,0,1,82.656,51.77L98,62" fill="none" stroke="#000005" stroke-linecap="round" stroke-miterlimit="10" stroke-width="4"></path>
        <line x2="48" transform="translate(40 90)" fill="none" stroke="#000005" stroke-linecap="round" stroke-miterlimit="10" stroke-width="4"></line>
        <line x2="6" transform="translate(120 90)" fill="none" stroke="#000005" stroke-linecap="round" stroke-miterlimit="10" stroke-width="4"></line>
        <path d="M84,72l-2.554,3.193A18.141,18.141,0,0,1,67.282,82H44" fill="none" stroke="#000005" stroke-linecap="round" stroke-miterlimit="10" stroke-width="4"></path>
        <line x2="6" y2="6" transform="translate(10 54)" fill="none" stroke="#000005" stroke-linecap="round" stroke-miterlimit="10" stroke-width="4"></line>
        <path d="M14.917,54H3.084A1.083,1.083,0,0,1,2,52.917V47.083A1.083,1.083,0,0,1,3.084,46H10.5A5.5,5.5,0,0,1,16,51.5v1.417A1.083,1.083,0,0,1,14.917,54Z" fill="none" stroke="#000005" stroke-linecap="round" stroke-miterlimit="10" stroke-width="4"></path>
        <path d="M42,62l42.04,3.656a14.081,14.081,0,0,0,7.515-1.433L96,62" fill="none" stroke="#000005" stroke-linecap="round" stroke-miterlimit="10" stroke-width="4"></path>
        <line x1="10" transform="translate(84 62)" fill="none" stroke="#000005" stroke-linecap="round" stroke-miterlimit="10" stroke-width="4"></line>
        <circle cx="12" cy="12" r="12" transform="translate(92 70)" fill="none" stroke="#000005" stroke-linecap="round" stroke-miterlimit="10" stroke-width="4"></circle>
        <path d="M110,82a6,6,0,1,1-6-6" fill="none" stroke="#000005" stroke-linecap="round" stroke-miterlimit="10" stroke-width="4"></path>
        <circle cx="12" cy="12" r="12" transform="translate(11 70)" fill="none" stroke="#000005" stroke-linecap="round" stroke-miterlimit="10" stroke-width="4"></circle>
        <path d="M29,82a6,6,0,1,1-6-6" fill="none" stroke="#000005" stroke-linecap="round" stroke-miterlimit="10" stroke-width="4"></path>
        <line x1="16" y2="32" transform="translate(58 2)" fill="none" stroke="#ed1c24" stroke-linecap="round" stroke-miterlimit="10" stroke-width="4"></line>
        <path d="M72,6l18,8L84,28,66,20" fill="none" stroke="#ed1c24" stroke-linecap="round" stroke-miterlimit="10" stroke-width="4"></path>
        <path d="M87.285,21.408,98,26,92,40,74,32l2.739-6" fill="none" stroke="#ed1c24" stroke-linecap="round" stroke-miterlimit="10" stroke-width="4"></path>
        <line x2="16" y2="32" transform="translate(48 2)" fill="none" stroke="#ed1c24" stroke-linecap="round" stroke-miterlimit="10" stroke-width="4"></line>
        <path d="M50,6,32,14l6,14,18-8" fill="none" stroke="#ed1c24" stroke-linecap="round" stroke-miterlimit="10" stroke-width="4"></path>
        <path d="M34.715,21.408,24,26l6,14,18-8L45.26,26" fill="none" stroke="#ed1c24" stroke-linecap="round" stroke-miterlimit="10" stroke-width="4"></path>
      </g>
    </g>
  </g>
</svg>
