<?xml version="1.0" encoding="UTF-8"?>
<svg xmlns="http://www.w3.org/2000/svg" xmlns:xlink="http://www.w3.org/1999/xlink" width="138" height="138" viewBox="0 0 138 138">
  <defs>
    <clipPath id="a">
      <rect width="116" height="82" fill="none"></rect>
    </clipPath>
  </defs>
  <g transform="translate(14330 -2760)">
    <rect width="138" height="138" transform="translate(-14330 2760)" fill="none"></rect>
    <g transform="translate(-14319 2788)">
      <g clip-path="url(#a)">
        <path d="M22,62H19a1,1,0,0,1-1-1V35a1,1,0,0,1,1-1h3" fill="none" stroke="#000005" stroke-linecap="round" stroke-miterlimit="10" stroke-width="4"></path>
        <line x1="2" transform="translate(102 40)" fill="none" stroke="#000005" stroke-linecap="round" stroke-miterlimit="10" stroke-width="4"></line>
        <line y1="2" transform="translate(54 10)" fill="none" stroke="#000005" stroke-linecap="round" stroke-miterlimit="10" stroke-width="4"></line>
        <line y1="2" transform="translate(66 10)" fill="none" stroke="#000005" stroke-linecap="round" stroke-miterlimit="10" stroke-width="4"></line>
        <rect width="32" height="6" rx="1" transform="translate(44 2)" fill="none" stroke="#000005" stroke-linecap="round" stroke-miterlimit="10" stroke-width="4"></rect>
        <path d="M106,63v7a1.948,1.948,0,0,0,1.948,1.948h1.927A1.93,1.93,0,0,0,111.6,70.9c1.092-2.153,2.4-9.516,2.4-19.409s-1.3-16.294-2.4-18.447A1.93,1.93,0,0,0,109.875,32h-1.927A1.949,1.949,0,0,0,106,33.947V64" fill="none" stroke="#000005" stroke-linecap="round" stroke-miterlimit="10" stroke-width="4"></path>
        <path d="M44,71.33l9.694,6.349C55.205,78.543,56.915,80,58.656,80H94a2,2,0,0,0,2-2V60" fill="none" stroke="#000005" stroke-linecap="round" stroke-miterlimit="10" stroke-width="4"></path>
        <rect width="6" height="32" rx="1" transform="translate(2 32)" fill="none" stroke="#000005" stroke-linecap="round" stroke-miterlimit="10" stroke-width="4"></rect>
        <path d="M82,70H30a2,2,0,0,1-2-2V60" fill="none" stroke="#000005" stroke-linecap="round" stroke-miterlimit="10" stroke-width="4"></path>
        <line x1="5.654" transform="translate(10.346 54)" fill="none" stroke="#000005" stroke-linecap="round" stroke-miterlimit="10" stroke-width="4"></line>
        <line x1="5.654" transform="translate(10.346 42)" fill="none" stroke="#000005" stroke-linecap="round" stroke-miterlimit="10" stroke-width="4"></line>
        <path d="M96,50V28a2,2,0,0,0-2-2H86a2,2,0,0,1-2-2V20a2,2,0,0,0-2-2H38a2,2,0,0,0-2,2v4a2,2,0,0,1-2,2H30a2,2,0,0,0-2,2V50" fill="none" stroke="#ed1c24" stroke-linecap="round" stroke-miterlimit="10" stroke-width="4"></path>
        <circle cx="1.5" cy="1.5" r="1.5" transform="translate(47 33.5)" fill="none" stroke="#ed1c24" stroke-linecap="round" stroke-miterlimit="10" stroke-width="4"></circle>
        <line x1="2" transform="translate(102 64)" fill="none" stroke="#000005" stroke-linecap="round" stroke-miterlimit="10" stroke-width="4"></line>
        <path d="M42,56v2a2,2,0,0,0,2,2H54a2,2,0,0,0,2-2,2,2,0,0,1,2-2h8a2,2,0,0,1,2,2,2,2,0,0,0,2,2H80a2,2,0,0,0,2-2V56" fill="none" stroke="#ed1c24" stroke-linecap="round" stroke-miterlimit="10" stroke-width="4"></path>
        <circle cx="1.5" cy="1.5" r="1.5" transform="translate(60 33.5)" fill="none" stroke="#ed1c24" stroke-linecap="round" stroke-miterlimit="10" stroke-width="4"></circle>
        <circle cx="1.5" cy="1.5" r="1.5" transform="translate(73 33.5)" fill="none" stroke="#ed1c24" stroke-linecap="round" stroke-miterlimit="10" stroke-width="4"></circle>
      </g>
    </g>
  </g>
</svg>
