<?xml version="1.0" encoding="UTF-8"?>
<svg xmlns="http://www.w3.org/2000/svg" xmlns:xlink="http://www.w3.org/1999/xlink" width="138" height="138" viewBox="0 0 138 138">
  <defs>
    <clipPath id="a">
      <rect width="118" height="89" fill="none"></rect>
    </clipPath>
  </defs>
  <g transform="translate(13670 -2774)">
    <rect width="138" height="138" transform="translate(-13670 2774)" fill="none"></rect>
    <g transform="translate(-13660 2799)">
      <g clip-path="url(#a)">
        <path d="M70,35c14,2,18-8,18-8" fill="none" stroke="#000005" stroke-linecap="round" stroke-miterlimit="10" stroke-width="4"></path>
        <path d="M88,27s0,8,12,10" fill="none" stroke="#000005" stroke-linecap="round" stroke-miterlimit="10" stroke-width="4"></path>
        <path d="M98,38v4a12,12,0,0,1-24,0V38" fill="none" stroke="#000005" stroke-linecap="round" stroke-miterlimit="10" stroke-width="4"></path>
        <path d="M74.77,46.4a16,16,0,1,1,23.322-.917" fill="none" stroke="#000005" stroke-linecap="round" stroke-miterlimit="10" stroke-width="4"></path>
        <line y2="4.889" transform="translate(24 39.833)" fill="none" stroke="#000005" stroke-linecap="round" stroke-miterlimit="10" stroke-width="4"></line>
        <line y2="5.556" transform="translate(40 39.167)" fill="none" stroke="#000005" stroke-linecap="round" stroke-miterlimit="10" stroke-width="4"></line>
        <path d="M18.483,9.355A18,18,0,1,1,42.95,35" fill="none" stroke="#000005" stroke-linecap="round" stroke-miterlimit="10" stroke-width="4"></path>
        <path d="M20.068,31.571A13,13,0,0,1,18.3,9.529c.193-.142.389-.279.59-.41" fill="none" stroke="#000005" stroke-linecap="round" stroke-miterlimit="10" stroke-width="4"></path>
        <path d="M16,28l4.228-6.342a7.7,7.7,0,0,1,9.854-2.617l3.369,1.685a7.705,7.705,0,0,0,5.313.583l3.783-.946A1.17,1.17,0,0,1,44,21.5v8.1A12.262,12.262,0,0,1,32.225,42,12,12,0,0,1,20,30V22" fill="none" stroke="#000005" stroke-linecap="round" stroke-miterlimit="10" stroke-width="4"></path>
        <path d="M20.923,49.923l-5.2.945C8.767,52.133,2.781,57.815,2,64.843V73a2,2,0,0,0,2,2H48" fill="none" stroke="#ed1c24" stroke-linecap="round" stroke-miterlimit="10" stroke-width="4"></path>
        <path d="M58.206,57a15.991,15.991,0,0,0-9.93-6.132l-5.2-.945" fill="none" stroke="#ed1c24" stroke-linecap="round" stroke-miterlimit="10" stroke-width="4"></path>
        <path d="M20.923,49.923,32,61,43.077,49.923" fill="none" stroke="#ed1c24" stroke-linecap="round" stroke-miterlimit="10" stroke-width="4"></path>
        <path d="M78.879,61.2l-9.155,1.665C62.767,64.133,56.781,69.815,56,76.844V85a2,2,0,0,0,2,2h56a2,2,0,0,0,2-2V76.844c-.781-7.029-6.767-12.711-13.724-13.975l-8.821-1.6" fill="none" stroke="#ed1c24" stroke-linecap="round" stroke-miterlimit="10" stroke-width="4"></path>
        <path d="M78.879,61.2,88.225,76.16A6.044,6.044,0,0,0,99.192,74.5l3.084-11.636" fill="none" stroke="#ed1c24" stroke-linecap="round" stroke-miterlimit="10" stroke-width="4"></path>
        <path d="M93.455,61.265l-9.4,14.9A6.044,6.044,0,0,1,73.084,74.5L70,62.869" fill="none" stroke="#ed1c24" stroke-linecap="round" stroke-miterlimit="10" stroke-width="4"></path>
      </g>
    </g>
  </g>
</svg>
