<?xml version="1.0" encoding="UTF-8"?>
<svg xmlns="http://www.w3.org/2000/svg" width="26" height="18.281" viewBox="0 0 26 18.281">
  <path d="M26.507,7.36a3.267,3.267,0,0,0-2.3-2.314C22.18,4.5,14.05,4.5,14.05,4.5s-8.13,0-10.158.547a3.267,3.267,0,0,0-2.3,2.314,34.271,34.271,0,0,0-.543,6.3,34.271,34.271,0,0,0,.543,6.3,3.218,3.218,0,0,0,2.3,2.277c2.028.547,10.158.547,10.158.547s8.13,0,10.158-.547a3.218,3.218,0,0,0,2.3-2.277,34.271,34.271,0,0,0,.543-6.3,34.271,34.271,0,0,0-.543-6.3ZM11.391,17.525V9.793l6.8,3.866-6.8,3.866Z" transform="translate(-1.05 -4.5)"></path>
</svg>
